External Loads File
version=1
nRows=55
nColumns=13
Range=5.000000e-03-10 seconds
endheader
time 	forceRightX 	forceRightY 	forceRightZ 	pointRightX 	pointRightY 	pointRightZ 	forceLeftX 	forceLeftY 	forceLeftZ 	pointLeftX 	pointLeftY 	pointLeftZ 		
0.005000 44.775468 125.872219 -0.000000 0.160087 0.170176 -0.145635 40.025663 109.599117 -0.000000 0.313480 0.486940 -0.378403
0.010000 45.065508 125.507870 -0.000000 0.160105 0.170184 -0.145644 37.688236 107.235086 -0.000000 0.313465 0.486958 -0.378395
0.015000 45.443504 125.214065 -0.000000 0.160113 0.170189 -0.145637 35.678150 105.159017 -0.000000 0.313454 0.486961 -0.378401
0.020000 45.898562 125.010907 -0.000000 0.160129 0.170166 -0.145646 34.172587 103.550698 -0.000000 0.313446 0.486967 -0.378408
0.025000 46.183944 124.988789 -0.000000 0.160095 0.170166 -0.145660 33.013507 102.522524 -0.000000 0.313440 0.486976 -0.378416
0.030000 46.529548 125.043613 -0.000000 0.160154 0.170154 -0.145621 32.365594 101.991307 -0.000000 0.313437 0.486987 -0.378425
0.035000 46.966685 125.130287 -0.000000 0.160160 0.170161 -0.145626 32.182999 101.873822 -0.000000 0.313435 0.487001 -0.378434
0.040000 47.326350 125.268064 -0.000000 0.160155 0.170152 -0.145610 32.230271 102.081462 -0.000000 0.313434 0.487017 -0.378444
0.045000 47.526514 125.426629 -0.000000 0.160164 0.170160 -0.145613 32.368290 102.500231 -0.000000 0.313435 0.487036 -0.378455
0.050000 47.972627 125.388943 -0.000000 0.160136 0.170172 -0.145606 32.877213 102.910609 -0.000000 0.313435 0.487057 -0.378466
0.055000 48.036493 125.364574 -0.000000 0.160156 0.170161 -0.145600 33.160942 103.365757 -0.000000 0.313436 0.487081 -0.378478
0.060000 48.127293 125.220001 -0.000000 0.160159 0.170146 -0.145599 33.456964 103.679277 -0.000000 0.313436 0.487107 -0.378490
0.065000 48.187951 125.037661 -0.000000 0.160157 0.170142 -0.145600 33.636165 103.837797 -0.000000 0.313435 0.487136 -0.378503
0.070000 48.437126 124.786025 -0.000000 0.160160 0.170139 -0.145605 33.812376 103.769453 -0.000000 0.313433 0.487166 -0.378516
0.075000 48.299376 124.700578 -0.000000 0.160175 0.170145 -0.145595 33.475017 103.618651 -0.000000 0.313429 0.487199 -0.378529
0.080000 48.430081 124.513372 -0.000000 0.160158 0.170136 -0.145602 33.184135 103.215271 -0.000000 0.313422 0.487235 -0.378542
0.085000 48.440011 124.362734 -0.000000 0.160176 0.170136 -0.145589 32.635714 102.675632 -0.000000 0.313413 0.487272 -0.378556
0.090000 48.573586 124.151225 -0.000000 0.160187 0.170121 -0.145605 32.046922 101.959009 -0.000000 0.313401 0.487311 -0.378570
0.095000 48.369175 124.063456 -0.000000 0.160195 0.170124 -0.145589 31.099873 101.260051 -0.000000 0.313385 0.487353 -0.378583
0.100000 48.275987 123.932472 -0.000000 0.160219 0.170114 -0.145594 30.265662 100.572010 -0.000000 0.313366 0.487396 -0.378597
0.105000 48.408242 123.723790 -0.000000 0.160228 0.170103 -0.145599 29.726444 99.953917 -0.000000 0.313342 0.487442 -0.378610
0.110000 48.299469 123.624322 -0.000000 0.160260 0.170089 -0.145588 29.186255 99.579878 -0.000000 0.313313 0.487489 -0.378624
0.115000 48.654550 123.355797 -0.000000 0.160278 0.170108 -0.145582 29.286373 99.335738 -0.000000 0.313279 0.487538 -0.378637
0.120000 48.751663 123.201249 -0.000000 0.160305 0.170089 -0.145592 29.454361 99.401589 -0.000000 0.313239 0.487590 -0.378650
0.125000 48.870596 123.057108 -0.000000 0.160328 0.170095 -0.145597 29.855417 99.673402 -0.000000 0.313193 0.487642 -0.378662
0.130000 49.005329 122.921053 -0.000000 0.160347 0.170085 -0.145588 30.420250 100.106924 -0.000000 0.313166 0.487697 -0.378681
0.135000 49.317805 122.701125 -0.000000 0.160392 0.170088 -0.145586 31.223050 100.590798 -0.000000 0.313122 0.487753 -0.378692
0.140000 49.388925 122.531434 -0.000000 0.160426 0.170068 -0.145579 31.845877 101.116168 -0.000000 0.313082 0.487811 -0.378706
0.145000 49.323832 122.346642 -0.000000 0.160464 0.170058 -0.145576 32.316820 101.557533 -0.000000 0.313049 0.487871 -0.378715
0.150000 49.299243 122.074808 -0.000000 0.160484 0.170047 -0.145571 32.767608 101.829072 -0.000000 0.313006 0.487932 -0.378735
0.155000 49.107273 121.838689 -0.000000 0.160517 0.170017 -0.145594 33.003612 101.982826 -0.000000 0.312971 0.487994 -0.378753
0.160000 48.938776 121.627887 -0.000000 0.160553 0.170022 -0.145591 33.140333 101.976551 -0.000000 0.312930 0.488058 -0.378770
0.165000 48.836936 121.478417 -0.000000 0.160590 0.170007 -0.145585 33.200107 101.835822 -0.000000 0.312884 0.488124 -0.378786
0.170000 48.778509 121.418116 -0.000000 0.160622 0.169980 -0.145594 33.185797 101.622380 -0.000000 0.312834 0.488191 -0.378802
0.175000 48.726099 121.454005 -0.000000 0.160650 0.169990 -0.145596 33.083371 101.384082 -0.000000 0.312782 0.488259 -0.378818
0.180000 48.638336 121.586172 -0.000000 0.160661 0.169984 -0.145605 32.873104 101.165975 -0.000000 0.312730 0.488328 -0.378836
0.185000 48.664384 121.744654 -0.000000 0.160701 0.169957 -0.145584 32.705578 100.977869 -0.000000 0.312680 0.488399 -0.378857
0.190000 48.903625 121.882169 -0.000000 0.160719 0.169941 -0.145593 32.690491 100.832506 -0.000000 0.312628 0.488471 -0.378881
0.195000 49.156340 122.056000 -0.000000 0.160744 0.169933 -0.145582 32.715164 100.811768 -0.000000 0.312570 0.488543 -0.378895
0.200000 49.483894 122.196361 -0.000000 0.160770 0.169916 -0.145589 32.923971 100.936845 -0.000000 0.312532 0.488618 -0.378908
0.205000 49.613296 122.362174 -0.000000 0.160794 0.169884 -0.145587 33.160680 101.290195 -0.000000 0.312291 0.488693 -0.378841
0.210000 49.746323 122.439033 -0.000000 0.160822 0.169861 -0.145596 33.591250 101.774101 -0.000000 0.312235 0.488769 -0.378862
0.215000 49.771026 122.466901 -0.000000 0.160842 0.169855 -0.145584 34.080736 102.359314 -0.000000 0.312203 0.488846 -0.378877
0.220000 49.926680 122.364979 -0.000000 0.160852 0.169835 -0.145589 34.749702 102.908234 -0.000000 0.312147 0.488924 -0.378898
0.225000 50.006751 122.249167 -0.000000 0.160884 0.169822 -0.145588 35.306238 103.394605 -0.000000 0.312044 0.489002 -0.378908
0.230000 49.952912 122.176538 -0.000000 0.160912 0.169810 -0.145589 35.600889 103.783902 -0.000000 0.311996 0.489082 -0.378865
0.235000 49.972520 122.079734 -0.000000 0.160924 0.169790 -0.145592 35.764199 103.996958 -0.000000 0.312178 0.489162 -0.379050
0.240000 50.113400 121.945563 -0.000000 0.160948 0.169775 -0.145588 35.817737 103.996440 -0.000000 0.311896 0.489244 -0.378971
0.245000 50.279247 121.830792 -0.000000 0.160974 0.169774 -0.145582 35.689127 103.810336 -0.000000 0.311838 0.489325 -0.378987
0.250000 50.376078 121.805839 -0.000000 0.160986 0.169759 -0.145585 35.356886 103.518778 -0.000000 0.311794 0.489408 -0.379015
0.255000 50.444436 121.879814 -0.000000 0.161007 0.169763 -0.145591 34.920361 103.163385 -0.000000 0.311750 0.489491 -0.379038
0.260000 50.795888 121.927001 -0.000000 0.161036 0.169737 -0.145579 34.676798 102.671097 -0.000000 0.311693 0.489574 -0.379048
0.265000 50.990402 122.108014 -0.000000 0.161043 0.169724 -0.145580 34.285313 102.176512 -0.000000 0.311657 0.489658 -0.379073
0.270000 50.923260 122.432247 -0.000000 0.161055 0.169735 -0.145597 33.692471 101.720028 -0.000000 0.311634 0.489743 -0.379130
0.275000 51.068424 122.674548 -0.000000 0.161072 0.169714 -0.145578 33.299677 101.171220 -0.000000 0.311558 0.489827 -0.379124
